<svg xmlns="http://www.w3.org/2000/svg"  viewBox="0 0 24 24" width="24px" height="24px"><path d="M23 22H10c-.552 0-1-.448-1-1s.448-1 1-1h13c.552 0 1 .448 1 1S23.552 22 23 22zM20.268 4.146l-1.414-1.414c-.756-.756-2.073-.755-2.828 0l-2.068 2.068 4.242 4.242 2.068-2.068c.378-.377.586-.879.586-1.414C20.854 5.026 20.646 4.524 20.268 4.146zM12.543 6.215L2.237 16.521c-.066.065-.112.148-.133.239l-1.09 4.625c-.04.168.011.346.133.468C1.241 21.948 1.369 22 1.5 22c.038 0 .077-.004.115-.013l4.625-1.09c.09-.021.173-.067.239-.133l10.306-10.306L12.543 6.215z"/></svg>